<svg width="71" height="72" viewBox="0 0 71 72" fill="none" xmlns="http://www.w3.org/2000/svg">
<ellipse cx="35.5" cy="36" rx="35.5" ry="36" fill="#FFD643"/>
<path d="M35.4732 13.168C40.9129 13.168 45.9482 14.1271 49.7141 15.775C51.5924 16.5977 53.2614 17.6368 54.4909 18.9109C55.631 20.0863 56.4773 21.5625 56.6113 23.2739L56.6301 23.7464V47.254C56.6301 49.1675 55.7344 50.8036 54.4909 52.0895C53.2614 53.3636 51.5924 54.4026 49.7141 55.2254C45.9482 56.8709 40.9129 57.8324 35.4732 57.8324C30.0336 57.8324 24.9983 56.8733 21.2323 55.2254C19.3541 54.4026 17.685 53.3636 16.4556 52.0895C15.3155 50.9141 14.4692 49.4378 14.3352 47.7265L14.3164 47.254V23.7464C14.3164 21.8329 15.212 20.1967 16.4556 18.9109C17.685 17.6368 19.3541 16.5977 21.2323 15.775C24.9983 14.1294 30.0336 13.168 35.4732 13.168ZM51.9286 42.3338C51.2159 42.7608 50.4762 43.1409 49.7141 43.4716C45.9482 45.1171 40.9129 46.0786 35.4732 46.0786C30.0336 46.0786 24.9983 45.1195 21.2323 43.4716C20.4702 43.1409 19.7305 42.7609 19.0179 42.3338V47.254C19.0179 47.6113 19.1731 48.1379 19.836 48.8219C20.5083 49.5178 21.5944 50.2512 23.1177 50.9188C26.1595 52.2493 30.5249 53.1309 35.4732 53.1309C40.4216 53.1309 44.787 52.2493 47.8288 50.9188C49.3521 50.2512 50.4382 49.5178 51.1105 48.8219C51.7734 48.1402 51.9286 47.6113 51.9286 47.254V42.3338ZM51.9286 30.58C51.2159 31.007 50.4762 31.3871 49.7141 31.7178C45.9482 33.3633 40.9129 34.3248 35.4732 34.3248C30.0336 34.3248 24.9983 33.3657 21.2323 31.7178C20.4702 31.3871 19.7305 31.0071 19.0179 30.58V35.5002C19.0179 35.8575 19.1731 36.3841 19.836 37.0681C20.5083 37.764 21.5944 38.4974 23.1177 39.165C26.1595 40.4955 30.5249 41.3771 35.4732 41.3771C40.4216 41.3771 44.787 40.4955 47.8288 39.165C49.3521 38.4974 50.4382 37.764 51.1105 37.0681C51.7734 36.3864 51.9286 35.8575 51.9286 35.5002V30.58ZM35.4732 17.8695C30.5249 17.8695 26.1595 18.751 23.1177 20.0816C21.5944 20.7492 20.5083 21.4826 19.836 22.1784C19.1731 22.8602 19.0179 23.3891 19.0179 23.7464C19.0179 24.1037 19.1731 24.6303 19.836 25.3143C20.5083 26.0102 21.5944 26.7436 23.1177 27.4112C26.1595 28.7418 30.5249 29.6233 35.4732 29.6233C40.4216 29.6233 44.787 28.7418 47.8288 27.4112C49.3521 26.7436 50.4382 26.0102 51.1105 25.3143C51.7734 24.6326 51.9286 24.1037 51.9286 23.7464C51.9286 23.3891 51.7734 22.8625 51.1105 22.1784C50.4382 21.4826 49.3521 20.7492 47.8288 20.0816C44.787 18.751 40.4216 17.8695 35.4732 17.8695Z" fill="white"/>
</svg>
