<svg width="71" height="72" viewBox="0 0 71 72" fill="none" xmlns="http://www.w3.org/2000/svg">
<ellipse cx="35.5" cy="36" rx="35.5" ry="36" fill="#5D87FF"/>
<path d="M23.4545 31.2V54H16V31.2H23.4545ZM30.9091 54C29.9206 54 28.9725 53.5996 28.2735 52.887C27.5745 52.1744 27.1818 51.2078 27.1818 50.2V31.2C27.1818 30.155 27.5918 29.205 28.2814 28.521L40.5441 16L42.5195 18.014C43.0227 18.527 43.3395 19.23 43.3395 20.009L43.2836 20.617L41.5132 29.3H53.2727C54.2613 29.3 55.2093 29.7004 55.9083 30.413C56.6073 31.1256 57 32.0922 57 33.1V36.9C57 37.394 56.9068 37.85 56.7391 38.287L51.1109 51.682C50.5518 53.05 49.2286 54 47.6818 54H30.9091ZM30.9091 50.2H47.7377L53.2727 36.9V33.1H36.8914L38.9973 22.992L30.9091 31.257V50.2Z" fill="white"/>
</svg>
