<svg width="71" height="72" viewBox="0 0 71 72" fill="none" xmlns="http://www.w3.org/2000/svg">
<ellipse cx="35.5" cy="36" rx="35.5" ry="36" fill="#175A95"/>
<path d="M22.5576 42.7928V37.061H28.1199V42.7928H22.5576ZM50.369 21.2816C50.3646 20.1445 49.9231 19.0555 49.1413 18.253C48.3594 17.4505 47.3008 17 46.1973 17L18.1717 17C17.0653 17 16.0042 17.4529 15.2219 18.2591C14.4395 19.0653 14 20.1587 14 21.2988L14 47.0915C14 48.9917 14.7325 50.8141 16.0364 52.1577C17.3404 53.5014 19.1088 54.2562 20.9529 54.2562H51.9737C53.8177 54.2562 55.5862 53.5014 56.8901 52.1577C58.1941 50.8141 58.9266 48.9917 58.9266 47.0915V29.8964C58.9266 28.7563 58.4871 27.6629 57.7047 26.8567C56.9224 26.0505 55.8613 25.5976 54.7549 25.5976H53.1502V46.3178C53.1502 46.6978 53.0037 47.0623 52.7429 47.331C52.4821 47.5997 52.1284 47.7507 51.7596 47.7507C51.3908 47.7507 51.0371 47.5997 50.7763 47.331C50.5155 47.0623 50.369 46.6978 50.369 46.3178V21.2816ZM19.7764 27.0305C19.7764 26.6505 19.9229 26.286 20.1837 26.0173C20.4445 25.7486 20.7982 25.5976 21.167 25.5976H43.4162C43.785 25.5976 44.1387 25.7486 44.3994 26.0173C44.6602 26.286 44.8067 26.6505 44.8067 27.0305C44.8067 27.4106 44.6602 27.775 44.3994 28.0437C44.1387 28.3125 43.785 28.4634 43.4162 28.4634H21.167C20.7982 28.4634 20.4445 28.3125 20.1837 28.0437C19.9229 27.775 19.7764 27.4106 19.7764 27.0305ZM35.0727 34.1952H43.4162C43.785 34.1952 44.1387 34.3461 44.3994 34.6149C44.6602 34.8836 44.8067 35.2481 44.8067 35.6281C44.8067 36.0081 44.6602 36.3726 44.3994 36.6413C44.1387 36.9101 43.785 37.061 43.4162 37.061H35.0727C34.7039 37.061 34.3502 36.9101 34.0894 36.6413C33.8287 36.3726 33.6822 36.0081 33.6822 35.6281C33.6822 35.2481 33.8287 34.8836 34.0894 34.6149C34.3502 34.3461 34.7039 34.1952 35.0727 34.1952ZM33.6822 44.2257C33.6822 43.8456 33.8287 43.4812 34.0894 43.2124C34.3502 42.9437 34.7039 42.7928 35.0727 42.7928H43.4162C43.785 42.7928 44.1387 42.9437 44.3994 43.2124C44.6602 43.4812 44.8067 43.8456 44.8067 44.2257C44.8067 44.6057 44.6602 44.9702 44.3994 45.2389C44.1387 45.5076 43.785 45.6586 43.4162 45.6586H35.0727C34.7039 45.6586 34.3502 45.5076 34.0894 45.2389C33.8287 44.9702 33.6822 44.6057 33.6822 44.2257ZM21.167 34.1952H29.5104C29.8792 34.1952 30.2329 34.3461 30.4937 34.6149C30.7545 34.8836 30.901 35.2481 30.901 35.6281V44.2257C30.901 44.6057 30.7545 44.9702 30.4937 45.2389C30.2329 45.5076 29.8792 45.6586 29.5104 45.6586H21.167C20.7982 45.6586 20.4445 45.5076 20.1837 45.2389C19.9229 44.9702 19.7764 44.6057 19.7764 44.2257V35.6281C19.7764 35.2481 19.9229 34.8836 20.1837 34.6149C20.4445 34.3461 20.7982 34.1952 21.167 34.1952Z" fill="white"/>
</svg>
