<svg width="71" height="72" viewBox="0 0 71 72" fill="none" xmlns="http://www.w3.org/2000/svg">
<ellipse cx="35.5" cy="36" rx="35.5" ry="36" fill="#EF6E6E"/>
<path d="M56.1876 36.0209C54.5303 31.734 51.6531 28.0266 47.9117 25.357C44.1703 22.6875 39.7287 21.1727 35.1358 21C30.5429 21.1727 26.1012 22.6875 22.3598 25.357C18.6184 28.0266 15.7413 31.734 14.0839 36.0209C13.972 36.3305 13.972 36.6695 14.0839 36.9791C15.7413 41.266 18.6184 44.9734 22.3598 47.643C26.1012 50.3125 30.5429 51.8273 35.1358 52C39.7287 51.8273 44.1703 50.3125 47.9117 47.643C51.6531 44.9734 54.5303 41.266 56.1876 36.9791C56.2995 36.6695 56.2995 36.3305 56.1876 36.0209ZM35.1358 49.1818C27.6676 49.1818 19.7767 43.6441 16.9162 36.5C19.7767 29.3559 27.6676 23.8182 35.1358 23.8182C42.6039 23.8182 50.4949 29.3559 53.3553 36.5C50.4949 43.6441 42.6039 49.1818 35.1358 49.1818Z" fill="white"/>
<path d="M35.1362 28.0454C33.464 28.0454 31.8294 28.5413 30.4391 29.4703C29.0488 30.3993 27.9651 31.7197 27.3252 33.2645C26.6853 34.8094 26.5179 36.5093 26.8441 38.1494C27.1703 39.7894 27.9755 41.2958 29.1579 42.4782C30.3403 43.6606 31.8468 44.4658 33.4868 44.792C35.1268 45.1183 36.8267 44.9508 38.3716 44.3109C39.9165 43.671 41.2369 42.5874 42.1659 41.197C43.0949 39.8067 43.5907 38.1721 43.5907 36.5C43.5907 34.2577 42.7 32.1072 41.1145 30.5217C39.5289 28.9362 37.3785 28.0454 35.1362 28.0454ZM35.1362 42.1363C34.0214 42.1363 32.9317 41.8058 32.0048 41.1864C31.0779 40.5671 30.3555 39.6868 29.9289 38.6569C29.5023 37.627 29.3906 36.4937 29.6081 35.4004C29.8256 34.307 30.3624 33.3027 31.1507 32.5144C31.9389 31.7262 32.9432 31.1894 34.0366 30.9719C35.1299 30.7544 36.2632 30.866 37.2931 31.2926C38.323 31.7192 39.2033 32.4417 39.8227 33.3686C40.442 34.2955 40.7726 35.3852 40.7726 36.5C40.7726 37.9948 40.1787 39.4284 39.1217 40.4855C38.0647 41.5425 36.631 42.1363 35.1362 42.1363Z" fill="white"/>
</svg>
