<svg width="28" height="28" viewBox="0 0 28 28" fill="none" xmlns="http://www.w3.org/2000/svg">
<circle cx="14" cy="14" r="14" fill="#FFC806"/>
<path d="M14.5932 24.2581L14.5822 24.2601L14.5112 24.2951L14.4912 24.2991L14.4772 24.2951L14.4062 24.2601C14.3962 24.2561 14.3872 24.2591 14.3822 24.2651L14.3782 24.2751L14.3612 24.7031L14.3662 24.7231L14.3762 24.7361L14.4802 24.8101L14.4952 24.8141L14.5072 24.8101L14.6112 24.7361L14.6232 24.7201L14.6272 24.7031L14.6102 24.2761C14.6082 24.2661 14.6012 24.2591 14.5932 24.2581ZM14.8582 24.1451L14.8452 24.1471L14.6602 24.2401L14.6502 24.2501L14.6472 24.2611L14.6652 24.6911L14.6702 24.7031L14.6782 24.7101L14.8792 24.8031C14.8912 24.8071 14.9022 24.8031 14.9082 24.7951L14.9122 24.7811L14.8782 24.1671C14.8752 24.1551 14.8682 24.1471 14.8582 24.1451ZM14.1432 24.1471C14.1386 24.145 14.1335 24.1445 14.1287 24.1456C14.1238 24.1466 14.1194 24.1493 14.1162 24.1531L14.1102 24.1671L14.0762 24.7811C14.0762 24.7931 14.0832 24.8011 14.0932 24.8051L14.1082 24.8031L14.3092 24.7101L14.3192 24.7021L14.3232 24.6911L14.3402 24.2611L14.3372 24.2491L14.3272 24.2391L14.1432 24.1471Z" fill="white"/>
<path d="M14 4C16.314 4 18.456 4.408 20.058 5.109C20.857 5.459 21.567 5.901 22.09 6.443C22.575 6.943 22.935 7.571 22.992 8.299L23 8.5V18.5C23 19.314 22.619 20.01 22.09 20.557C21.567 21.099 20.857 21.541 20.058 21.891C18.456 22.591 16.314 23 14 23C11.686 23 9.544 22.592 7.942 21.891C7.143 21.541 6.433 21.099 5.91 20.557C5.425 20.057 5.065 19.429 5.008 18.701L5 18.5V8.5C5 7.686 5.381 6.99 5.91 6.443C6.433 5.901 7.143 5.459 7.942 5.109C9.544 4.409 11.686 4 14 4ZM21 16.407C20.6969 16.5886 20.3822 16.7503 20.058 16.891C18.456 17.591 16.314 18 14 18C11.686 18 9.544 17.592 7.942 16.891C7.6178 16.7503 7.30314 16.5887 7 16.407V18.5C7 18.652 7.066 18.876 7.348 19.167C7.634 19.463 8.096 19.775 8.744 20.059C10.038 20.625 11.895 21 14 21C16.105 21 17.962 20.625 19.256 20.059C19.904 19.775 20.366 19.463 20.652 19.167C20.934 18.877 21 18.652 21 18.5V16.407ZM21 11.407C20.6969 11.5886 20.3822 11.7503 20.058 11.891C18.456 12.591 16.314 13 14 13C11.686 13 9.544 12.592 7.942 11.891C7.6178 11.7503 7.30314 11.5887 7 11.407V13.5C7 13.652 7.066 13.876 7.348 14.167C7.634 14.463 8.096 14.775 8.744 15.059C10.038 15.625 11.895 16 14 16C16.105 16 17.962 15.625 19.256 15.059C19.904 14.775 20.366 14.463 20.652 14.167C20.934 13.877 21 13.652 21 13.5V11.407ZM14 6C11.895 6 10.038 6.375 8.744 6.941C8.096 7.225 7.634 7.537 7.348 7.833C7.066 8.123 7 8.348 7 8.5C7 8.652 7.066 8.876 7.348 9.167C7.634 9.463 8.096 9.775 8.744 10.059C10.038 10.625 11.895 11 14 11C16.105 11 17.962 10.625 19.256 10.059C19.904 9.775 20.366 9.463 20.652 9.167C20.934 8.877 21 8.652 21 8.5C21 8.348 20.934 8.124 20.652 7.833C20.366 7.537 19.904 7.225 19.256 6.941C17.962 6.375 16.105 6 14 6Z" fill="white"/>
</svg>
