<svg width="28" height="28" viewBox="0 0 28 28" fill="none" xmlns="http://www.w3.org/2000/svg">
<path d="M28 12.6C28 11.8574 27.7318 11.1452 27.2545 10.6201C26.7771 10.095 26.1296 9.8 25.4545 9.8H17.4109L18.6327 3.402C18.6582 3.262 18.6709 3.108 18.6709 2.954C18.6709 2.38 18.4545 1.848 18.1109 1.47L16.7618 0L8.38727 9.212C7.91636 9.73 7.63636 10.43 7.63636 11.2V25.2C7.63636 25.9426 7.90454 26.6548 8.38191 27.1799C8.85927 27.705 9.50672 28 10.1818 28H21.6364C22.6927 28 23.5964 27.3 23.9782 26.292L27.8218 16.422C27.9364 16.1 28 15.764 28 15.4V12.6ZM0 28H5.09091V11.2H0V28Z" fill="#2A3547"/>
</svg>
