<svg width="28" height="28" viewBox="0 0 28 28" fill="none" xmlns="http://www.w3.org/2000/svg">
<path d="M5.83333 7.53846C5.83333 9.53779 6.69375 11.4552 8.2253 12.869C9.75684 14.2827 11.8341 15.0769 14 15.0769C16.1659 15.0769 18.2432 14.2827 19.7747 12.869C21.3063 11.4552 22.1667 9.53779 22.1667 7.53846C22.1667 5.53914 21.3063 3.6217 19.7747 2.20796C18.2432 0.794228 16.1659 0 14 0C11.8341 0 9.75684 0.794228 8.2253 2.20796C6.69375 3.6217 5.83333 5.53914 5.83333 7.53846ZM25.6667 28H1.16667C0.857247 28 0.560501 27.8865 0.341709 27.6846C0.122917 27.4826 0 27.2087 0 26.9231V23.6923C0 22.2642 0.614582 20.8946 1.70854 19.8848C2.80251 18.875 4.28624 18.3077 5.83333 18.3077H22.1667C23.7138 18.3077 25.1975 18.875 26.2915 19.8848C27.3854 20.8946 28 22.2642 28 23.6923V26.9231C28 27.2087 27.8771 27.4826 27.6583 27.6846C27.4395 27.8865 27.1428 28 26.8333 28H25.6667Z" fill="#2A3547"/>
</svg>
